<?xml version="1.0" encoding="UTF-8" standalone="no"?>
<!-- Created with Inkscape (http://www.inkscape.org/) -->

<svg
   xmlns:dc="http://purl.org/dc/elements/1.1/"
   xmlns:cc="http://creativecommons.org/ns#"
   xmlns:rdf="http://www.w3.org/1999/02/22-rdf-syntax-ns#"
   xmlns:svg="http://www.w3.org/2000/svg"
   xmlns="http://www.w3.org/2000/svg"
   xmlns:sodipodi="http://sodipodi.sourceforge.net/DTD/sodipodi-0.dtd"
   xmlns:inkscape="http://www.inkscape.org/namespaces/inkscape"
   id="svg2"
   version="1.1"
   inkscape:version="0.48.3.1 r9886"
   width="765"
   height="765"
   xml:space="preserve"
   sodipodi:docname="ATRINA.svg"><metadata
     id="metadata8"><rdf:RDF><cc:Work
         rdf:about=""><dc:format>image/svg+xml</dc:format><dc:type
           rdf:resource="http://purl.org/dc/dcmitype/StillImage" /><dc:title /></cc:Work></rdf:RDF></metadata><defs
     id="defs6"><clipPath
       clipPathUnits="userSpaceOnUse"
       id="clipPath16"><path
         d="M 0,792 612,792 612,0 0,0 0,792 z"
         id="path18" /></clipPath><clipPath
       clipPathUnits="userSpaceOnUse"
       id="clipPath24"><path
         d="m 0.513672,701.486 612.000328,0 0,-611.9997 -612.000328,0 0,611.9997 z"
         id="path26" /></clipPath></defs><sodipodi:namedview
     pagecolor="#ffffff"
     bordercolor="#666666"
     borderopacity="1"
     objecttolerance="10"
     gridtolerance="10"
     guidetolerance="10"
     inkscape:pageopacity="0"
     inkscape:pageshadow="2"
     inkscape:window-width="1317"
     inkscape:window-height="744"
     id="namedview4"
     showgrid="false"
     inkscape:zoom="0.47676768"
     inkscape:cx="619.43979"
     inkscape:cy="310.20106"
     inkscape:window-x="49"
     inkscape:window-y="24"
     inkscape:window-maximized="1"
     inkscape:current-layer="g10" /><g
     id="g10"
     inkscape:groupmode="layer"
     inkscape:label="ATRINA"
     transform="matrix(1.25,0,0,-1.25,0,990)"><g
       id="g12"
       transform="translate(-0.5138,90.5132)"><g
         id="g14"
         clip-path="url(#clipPath16)"><g
           id="g20"><g
             id="g22" /><g
             id="g28"><g
               clip-path="url(#clipPath24)"
               id="g30"><g
                 transform="translate(561.1758,364.4678)"
                 id="g32"><path
                   d="m 0,0 c 5.089,-0.798 9.543,-1.495 14.131,-2.214 l 0,4.059 C 9.53,1.646 4.911,2.962 0,0 m -126.306,33.23 c -8.222,0 -15.968,0.001 -23.714,0 -0.341,0 -0.717,0.09 -1.016,-0.023 -0.668,-0.251 -1.299,-0.605 -2.017,-0.952 3.102,-3.141 20.995,-2.547 26.747,0.975 M 10.675,-25.176 c 0.2,1.262 0.388,2.448 0.596,3.771 -1.269,0.268 -2.24,0.511 -3.223,0.677 -6.6,1.111 -13.21,2.162 -19.802,3.317 -5.797,1.016 -11.591,1.931 -17.466,0.751 -0.624,-0.125 -1.155,-0.717 -1.728,-1.093 0.072,-0.25 0.144,-0.5 0.217,-0.751 13.683,-2.205 27.366,-4.41 41.406,-6.672 M -460.85,-93.194 c 0.032,0.245 0.064,0.491 0.096,0.736 2.309,0 4.643,-0.193 6.915,0.097 0.904,0.115 1.672,1.301 2.502,2.001 -0.809,0.599 -1.564,1.61 -2.435,1.722 -2.866,0.372 -5.782,0.325 -8.664,0.605 -9.971,0.966 -19.935,2.014 -29.906,2.982 -0.67,0.066 -1.381,-0.278 -2.072,-0.432 0.291,-0.611 0.42,-1.473 0.903,-1.783 1.321,-0.845 2.73,-1.877 4.212,-2.094 9.467,-1.389 18.963,-2.579 28.449,-3.834 m 306.966,138.743 c 11.951,-1.683 74.467,-3.252 76.521,-1.546 -1.705,0.763 -3.128,1.857 -4.64,1.996 -5.754,0.53 -11.534,0.949 -17.311,1.05 -16.243,0.285 -32.488,0.407 -48.732,0.543 -1.52,0.013 -3.062,-0.235 -4.554,-0.553 -0.444,-0.094 -0.749,-0.841 -1.284,-1.49 m 94.08,-83.266 c -0.044,-0.372 -0.089,-0.743 -0.133,-1.115 21.679,-3.182 43.358,-6.363 65.083,-9.553 0.236,0.796 0.386,1.272 0.517,1.753 0.129,0.472 0.238,0.949 0.432,1.725 -21.839,4.716 -43.645,8.135 -65.899,7.19 M -507.2,-50.337 c 0.269,-2.933 1.789,-3.805 3.926,-4.107 5.696,-0.806 11.382,-1.675 17.079,-2.471 6.544,-0.915 13.091,-1.81 19.645,-2.653 5.303,-0.683 10.606,-1.409 15.93,-1.876 6.183,-0.543 12.386,-1.015 18.587,-1.113 2.054,-0.031 4.128,1.191 6.193,1.84 -0.075,0.273 -0.15,0.545 -0.225,0.819 -26.922,3.171 -53.844,6.344 -81.135,9.561 M -154.469,60.1 c -0.061,-0.282 -0.123,-0.564 -0.183,-0.847 0.37,-0.211 0.724,-0.566 1.113,-0.61 1.945,-0.221 3.896,-0.432 5.852,-0.518 8.354,-0.37 16.711,-0.666 25.066,-1.043 14.652,-0.664 29.303,-1.36 43.953,-2.055 7.071,-0.335 14.145,-0.651 21.211,-1.073 3.395,-0.203 6.772,-0.731 10.169,-0.931 2.646,-0.156 5.309,-0.031 7.966,-0.031 -10e-4,0.274 -0.003,0.548 -0.005,0.822 -38.166,6.179 -76.526,8.667 -115.142,6.286 m 105.609,94.815 c -0.324,-0.006 -0.648,-0.011 -0.972,-0.017 -2.35,-16.785 -4.7,-33.57 -7.054,-50.377 l 14.812,0 c -2.282,16.944 -4.534,33.668 -6.786,50.394 m -407.058,-0.074 c -0.331,0.029 -0.662,0.057 -0.992,0.086 -2.347,-16.761 -4.695,-33.523 -7.059,-50.399 l 14.837,0 c -2.282,16.914 -4.534,33.614 -6.786,50.313 M -35.337,60.376 c -1.007,5.955 -2.003,11.258 -2.752,16.596 -0.264,1.879 -1.127,2.507 -2.819,2.506 -5.559,-0.005 -11.12,0.104 -16.672,-0.091 -1.113,-0.039 -2.967,-1.058 -3.148,-1.908 -0.942,-4.427 -1.454,-8.946 -2.14,-13.603 9.264,-1.178 18.067,-2.297 27.531,-3.5 m -105.592,6.455 c -4.971,18.101 -9.891,36.014 -14.811,53.927 -0.259,-0.052 -0.518,-0.105 -0.776,-0.157 -0.052,-0.653 -0.15,-1.306 -0.15,-1.959 -0.009,-15.817 -0.018,-31.634 0.019,-47.451 0.002,-1.077 0.239,-2.198 0.61,-3.209 0.18,-0.491 0.917,-1.092 1.411,-1.101 4.505,-0.085 9.012,-0.05 13.697,-0.05 m 23.137,-134.239 c 0.031,-0.24 0.062,-0.481 0.091,-0.722 1.646,-0.1 3.294,-0.203 4.94,-0.301 10.89,-0.646 21.784,-1.225 32.667,-1.963 6.115,-0.415 12.223,-1.006 18.316,-1.676 6.409,-0.705 12.8,-1.573 19.194,-2.416 5.717,-0.755 11.432,-1.525 17.135,-2.38 5.693,-0.854 11.36,-1.881 17.056,-2.715 2.683,-0.394 3.824,1.024 3.263,3.699 -8.459,1.303 -16.901,2.644 -25.356,3.896 -8.136,1.203 -16.268,2.459 -24.433,3.426 -7.596,0.9 -15.223,1.622 -22.854,2.11 -10.429,0.666 -20.874,1.162 -31.319,1.454 -3.019,0.084 -6.059,-0.8 -8.7,-2.412 m -243.92,32.683 c -0.813,0.042 -1.63,0.156 -2.439,0.116 -5.624,-0.277 -11.245,-0.812 -16.869,-0.834 -11.197,-0.042 -22.404,-0.03 -33.591,0.376 -10.818,0.392 -21.63,1.149 -32.42,2.04 -9.995,0.825 -19.984,1.839 -29.928,3.135 -11.508,1.502 -22.961,3.419 -34.446,5.097 -0.774,0.113 -1.621,-0.273 -2.434,-0.428 -0.058,-0.346 -0.117,-0.694 -0.175,-1.041 1.598,-0.978 3.098,-2.548 4.811,-2.834 8.617,-1.433 17.28,-2.596 25.943,-3.731 9.846,-1.291 19.693,-2.613 29.569,-3.629 11.512,-1.186 23.042,-2.623 34.59,-2.921 15.463,-0.399 30.954,0.056 46.424,0.45 3.863,0.099 7.894,0.797 10.965,4.204 m 146.342,-74.118 c -0.021,-0.449 -0.041,-0.898 -0.063,-1.347 0.948,-0.233 1.929,-0.757 2.837,-0.651 4.717,0.554 9.402,1.401 14.123,1.897 9.222,0.967 18.449,1.922 27.694,2.604 11.31,0.835 22.639,1.871 33.966,1.943 16.581,0.103 33.168,-0.514 49.75,-0.957 4.335,-0.116 8.664,-0.667 12.986,-1.113 5.747,-0.593 11.487,-1.258 17.225,-1.93 6.24,-0.732 12.476,-1.482 18.707,-2.274 4.458,-0.567 8.893,-1.355 13.363,-1.78 2.647,-0.251 3.517,0.851 3.522,3.731 -0.986,0.066 -2,0.065 -2.992,0.209 -6.713,0.98 -13.406,2.111 -20.136,2.958 -8.009,1.009 -16.037,1.894 -24.076,2.631 -10.347,0.949 -20.703,2.225 -31.072,2.415 -17.187,0.314 -34.389,-0.023 -51.581,-0.295 -7.247,-0.114 -14.501,-0.587 -21.726,-1.208 -7.194,-0.618 -14.394,-1.383 -21.52,-2.534 -7.049,-1.14 -14.008,-2.843 -21.007,-4.299 m -60.025,159.298 c -0.26,1.23 -0.371,2.225 -0.682,3.152 -5.779,17.214 -11.573,34.423 -17.407,51.619 -0.344,1.011 -0.877,2.101 -1.649,2.782 -0.73,0.642 -1.893,0.792 -2.865,1.159 -0.332,-0.888 -0.947,-1.774 -0.953,-2.666 -0.073,-10.276 0.008,-20.553 -0.078,-30.83 -0.073,-8.635 -0.34,-17.269 -0.463,-25.904 -0.043,-2.991 0.552,-3.319 3.53,-2.722 2.657,0.533 5.357,0.851 8.032,1.294 4.08,0.674 8.155,1.375 12.535,2.116 m 256.757,99.066 c -0.196,-0.165 -0.391,-0.33 -0.588,-0.495 2.351,-12.351 4.757,-24.693 7.038,-37.057 3.112,-16.873 6.142,-33.762 9.17,-50.65 0.553,-3.081 1.831,-5.495 5.142,-6.157 1.745,-0.35 3.538,-0.596 5.313,-0.621 2.482,-0.034 3.548,1.347 3.148,3.794 -0.287,1.749 -0.62,3.49 -0.956,5.23 -1.763,9.129 -3.209,18.333 -5.368,27.368 -4.769,19.954 -13.026,38.633 -21.67,57.142 -0.258,0.553 -0.813,0.967 -1.229,1.446 m -280.355,11.179 -0.017,0 c 0,-7.792 0.042,-15.584 -0.027,-23.376 -0.02,-2.308 0.891,-3.256 3.204,-3.203 3.936,0.091 7.876,0 11.815,0.034 2.91,0.026 4.344,1.468 4.323,4.436 -0.104,14.971 -0.23,29.941 -0.382,44.911 -0.035,3.457 -0.959,4.327 -4.497,4.372 -3.339,0.043 -6.679,0.013 -10.018,0.009 -3.57,-0.005 -4.393,-0.8 -4.398,-4.321 -0.011,-7.621 -0.003,-15.242 -0.003,-22.862 M -438.689,39.928 c -0.667,4.181 -1.197,7.842 -1.844,11.481 -1.494,8.408 -3.096,16.796 -4.541,25.211 -0.372,2.166 -1.675,2.827 -3.54,2.842 -5.134,0.04 -10.269,0.003 -15.403,0.019 -2.219,0.007 -3.463,-1.189 -3.994,-3.211 -0.277,-1.058 -0.384,-2.16 -0.574,-3.241 -1.494,-8.493 -2.956,-16.992 -4.503,-25.476 -0.583,-3.198 0.453,-4.571 3.756,-4.888 4.056,-0.39 8.091,-0.998 12.149,-1.354 5.927,-0.519 11.867,-0.895 18.494,-1.383 m 342.795,-228.691 c 0.028,-0.206 0.054,-0.412 0.081,-0.617 2.361,0.631 4.729,1.238 7.074,1.923 0.292,0.086 0.695,0.629 0.641,0.867 -0.088,0.385 -0.449,0.851 -0.81,0.999 -0.614,0.251 -1.315,0.363 -1.986,0.395 -7.757,0.365 -15.514,0.894 -23.277,0.998 -8.289,0.109 -16.59,-0.041 -24.876,-0.348 -11.343,-0.422 -22.703,-0.779 -34.005,-1.76 -10.649,-0.922 -21.241,-2.552 -31.843,-3.988 -10.756,-1.457 -21.506,-2.976 -32.238,-4.611 -15.403,-2.348 -30.772,-4.927 -46.183,-7.22 -16.784,-2.498 -33.571,-4.997 -50.408,-7.084 -11.491,-1.426 -23.069,-2.135 -34.604,-3.214 -0.642,-0.06 -1.241,-0.573 -1.86,-0.876 0.52,-0.513 0.954,-1.204 1.577,-1.512 3.341,-1.647 6.816,-0.821 10.29,-0.492 8.14,0.773 16.311,1.25 24.435,2.161 10.546,1.181 21.069,2.582 31.58,4.044 10.574,1.469 21.13,3.068 31.677,4.721 10.209,1.6 20.378,3.461 30.597,4.989 13.342,1.996 26.7,3.907 40.082,5.615 12.138,1.55 24.291,3.08 36.482,4.067 11.48,0.93 23.013,1.43 34.53,1.582 11.01,0.146 22.029,-0.397 33.044,-0.639 M -377.83,14.949 c 0,0.182 0,0.364 0,0.547 2.396,0 4.803,-0.139 7.188,0.025 8.923,0.607 17.844,1.259 26.757,2 5.337,0.445 10.67,0.983 15.981,1.664 6.894,0.884 13.77,1.912 20.642,2.952 7.959,1.204 15.913,2.454 23.858,3.747 7.854,1.277 15.697,2.614 23.54,3.958 5.586,0.957 11.279,1.553 16.323,4.471 0.51,0.295 0.877,0.834 1.311,1.26 -0.643,0.242 -1.328,0.769 -1.923,0.683 -5.61,-0.809 -11.205,-1.718 -16.803,-2.607 -9.454,-1.502 -18.896,-3.087 -28.363,-4.495 -8.889,-1.321 -17.797,-2.528 -26.711,-3.659 -11.21,-1.421 -22.415,-2.951 -33.662,-3.99 -9.507,-0.879 -19.071,-1.153 -28.612,-1.639 -5.032,-0.256 -10.069,-0.429 -15.105,-0.572 -4.952,-0.141 -9.917,-0.449 -14.857,-0.236 -10.729,0.462 -21.45,1.141 -32.166,1.867 -5.943,0.402 -11.882,0.956 -17.797,1.658 -7.243,0.86 -14.461,1.928 -21.685,2.944 -6.635,0.933 -13.263,1.921 -19.895,2.875 -5.285,0.761 -10.571,1.523 -15.861,2.248 -1.164,0.16 -2.223,0.137 -2.268,-1.571 -0.039,-1.471 0.438,-2.129 1.951,-2.357 6.277,-0.951 12.517,-2.163 18.808,-2.999 12.536,-1.668 25.086,-3.255 37.652,-4.68 10.312,-1.169 20.637,-2.375 30.991,-2.981 12.017,-0.705 24.072,-0.809 36.112,-1.094 4.862,-0.114 9.729,-0.019 14.594,-0.019 M -485.533,155.38 c -0.185,0.077 -0.369,0.154 -0.554,0.231 -0.343,-0.4 -0.762,-0.756 -1.018,-1.205 -9.317,-16.332 -17.243,-33.318 -21.964,-51.548 -3.45,-13.317 -6.039,-26.866 -8.722,-40.369 -0.756,-3.807 -1.014,-8.116 2.913,-10.681 1.909,-1.246 4.35,-1.753 6.612,-2.359 1.704,-0.456 2.745,0.079 3.067,2.216 0.894,5.932 2.07,11.823 3.178,17.723 2.328,12.379 4.651,24.758 7.038,37.126 2.483,12.861 5.046,25.707 7.555,38.563 0.669,3.427 1.265,6.868 1.895,10.303 M -232.781,23.075 c -0.083,0.288 -0.166,0.575 -0.249,0.863 -0.746,0 -1.507,0.1 -2.235,-0.015 -7.452,-1.173 -14.896,-2.391 -22.345,-3.576 -17.243,-2.746 -34.466,-5.622 -51.737,-8.169 -11.008,-1.624 -22.066,-3.014 -33.145,-4.031 -10.781,-0.989 -21.611,-1.67 -32.433,-1.943 -14.119,-0.354 -28.251,-0.185 -42.377,-0.212 -3.337,-0.006 -6.684,-0.035 -10.01,0.2 -7.559,0.537 -15.112,1.186 -22.66,1.876 -5.249,0.48 -10.491,1.044 -15.723,1.683 -6.065,0.74 -12.116,1.593 -18.17,2.416 -5.633,0.766 -11.268,1.523 -16.893,2.347 -4.863,0.712 -9.706,1.553 -14.573,2.236 -0.942,0.132 -2.388,0.684 -2.536,-1.152 -0.127,-1.583 0.42,-2.511 2.207,-2.76 7.052,-0.984 14.083,-2.117 21.129,-3.152 8.058,-1.185 16.109,-2.445 24.19,-3.449 8.262,-1.026 16.547,-1.906 24.841,-2.623 9.42,-0.812 18.854,-1.7 28.297,-1.953 10.08,-0.27 20.182,0.065 30.27,0.318 9.728,0.244 19.463,0.54 29.175,1.145 10.364,0.646 20.735,1.418 31.048,2.61 12.299,1.422 24.574,3.134 36.797,5.107 15.713,2.536 31.37,5.422 47.037,8.233 3.628,0.652 6.94,2.191 10.095,4.001 M -516.22,-4.479 c 4.232,-0.729 8.381,-1.552 12.563,-2.139 8.062,-1.133 16.144,-2.12 24.216,-3.188 7.483,-0.989 14.948,-2.143 22.449,-2.967 8.035,-0.883 16.09,-1.736 24.159,-2.115 12.366,-0.58 24.749,-0.874 37.128,-1.05 15.034,-0.212 30.036,0.518 44.997,2.078 6.009,0.626 12.049,0.969 18.053,1.644 7.933,0.892 15.846,1.976 23.766,2.991 8.162,1.047 16.352,1.919 24.476,3.212 12.797,2.037 25.556,4.315 38.313,6.591 4.031,0.719 7.896,1.985 11.401,5.358 -1.528,0 -2.468,0.116 -3.372,-0.018 -10.15,-1.507 -20.298,-3.027 -30.439,-4.595 -11.884,-1.837 -23.737,-3.892 -35.646,-5.543 -12.692,-1.758 -25.417,-3.312 -38.159,-4.653 -10.416,-1.096 -20.866,-2.058 -31.325,-2.514 -12.04,-0.524 -24.108,-0.508 -36.164,-0.561 -4.689,-0.021 -9.386,0.317 -14.069,0.649 -7.899,0.561 -15.793,1.215 -23.683,1.891 -5.849,0.501 -11.704,0.988 -17.532,1.681 -7.329,0.873 -14.637,1.921 -21.947,2.945 -6.635,0.929 -13.26,1.937 -19.893,2.89 -3.247,0.467 -6.5,0.887 -10.05,1.368 0.303,-1.581 0.521,-2.72 0.758,-3.955 m -0.877,48.382 c -0.531,-3.632 -0.409,-3.99 1.544,-4.279 14.082,-2.089 28.142,-4.34 42.256,-6.178 12.391,-1.613 24.819,-3.059 37.275,-4.017 10.804,-0.832 21.667,-1.088 32.509,-1.222 16.745,-0.206 33.491,-0.07 50.186,1.594 6.438,0.641 12.914,0.934 19.341,1.669 7.245,0.828 14.455,1.97 21.678,2.982 9.903,1.387 19.835,2.6 29.699,4.218 11.181,1.835 22.327,3.906 33.439,6.125 7.514,1.501 14.941,3.434 22.408,5.174 0.061,0.303 0.12,0.606 0.181,0.909 -0.678,0.292 -1.383,0.884 -2.028,0.825 -2.865,-0.265 -5.72,-0.661 -8.563,-1.109 -9.376,-1.479 -18.736,-3.054 -28.117,-4.494 -9.551,-1.464 -19.124,-2.783 -28.679,-4.221 -9.803,-1.474 -19.578,-3.153 -29.4,-4.487 -9.085,-1.235 -18.197,-2.336 -27.33,-3.121 -10.529,-0.904 -21.09,-1.88 -31.643,-1.954 -15.29,-0.105 -30.591,0.453 -45.878,0.967 -6.801,0.229 -13.592,0.948 -20.369,1.619 -7.105,0.702 -14.188,1.612 -21.281,2.435 -6.241,0.724 -12.5,1.329 -18.72,2.211 -9.462,1.341 -18.898,2.876 -28.508,4.354 m 470.77,-189.286 c -3.786,0.466 -7.291,0.97 -10.813,1.316 -6.017,0.588 -12.042,1.112 -18.068,1.603 -8.575,0.699 -17.147,1.793 -25.733,1.927 -24.786,0.387 -49.57,0.085 -74.296,-1.973 -7.63,-0.635 -15.271,-1.222 -22.869,-2.137 -8.084,-0.974 -16.13,-2.265 -24.179,-3.502 -10.044,-1.543 -20.076,-3.156 -30.109,-4.771 -10.21,-1.644 -20.401,-3.402 -30.622,-4.973 -8.714,-1.338 -17.453,-2.524 -26.192,-3.699 -9.085,-1.221 -18.164,-2.53 -27.281,-3.467 -8.728,-0.898 -17.49,-1.556 -26.254,-1.982 -13.653,-0.663 -27.319,-1.279 -40.984,-1.458 -9.208,-0.121 -18.426,0.57 -27.641,0.83 -1.094,0.031 -2.201,-0.362 -3.302,-0.56 0.853,-0.945 1.631,-1.978 2.591,-2.797 0.465,-0.396 1.267,-0.514 1.925,-0.545 7.929,-0.374 15.858,-0.844 23.792,-1.007 5.547,-0.113 11.105,0.159 16.656,0.344 9.898,0.33 19.806,0.535 29.687,1.142 10.449,0.643 20.889,1.521 31.299,2.617 9.279,0.977 18.529,2.267 27.757,3.646 11.564,1.729 23.091,3.703 34.638,5.547 13.142,2.098 26.279,4.223 39.434,6.235 9.395,1.437 18.798,2.848 28.23,4.006 8.688,1.067 17.41,1.917 26.138,2.614 9.853,0.788 19.721,1.539 29.598,1.865 10.349,0.34 20.715,0.238 31.073,0.166 5.719,-0.039 11.444,-0.28 17.15,-0.667 7.306,-0.497 14.598,-1.194 21.889,-1.878 6.429,-0.604 12.859,-1.216 19.267,-2.002 3.613,-0.444 5.382,0.189 7.219,3.56 M -199.32,50.68 c -4.845,-0.878 -9.338,-1.712 -13.839,-2.501 -3.327,-0.583 -5.052,-2.547 -5.191,-5.89 -0.059,-1.443 -0.112,-2.925 -0.491,-4.3 -0.183,-0.667 -1.052,-1.518 -1.712,-1.619 -3.108,-0.474 -6.262,-0.647 -9.376,-1.095 -0.789,-0.114 -1.915,-0.71 -2.112,-1.33 -0.203,-0.635 0.341,-1.777 0.909,-2.343 2.362,-2.35 4.669,-4.825 7.347,-6.769 3.822,-2.776 4.955,-6.543 4.913,-10.888 -0.036,-3.667 -0.477,-7.339 -0.373,-10.998 0.119,-4.188 -0.022,-4.611 -3.978,-5.623 -9.429,-2.411 -18.881,-4.738 -28.274,-7.284 -18.683,-5.061 -37.338,-10.227 -55.99,-15.401 -3.183,-0.883 -6.146,-2.355 -7.485,-5.621 -1.09,-2.662 -3.11,-3.863 -5.645,-4.651 -7.666,-2.382 -15.378,-4.636 -22.955,-7.275 -4.949,-1.725 -9.695,-4.032 -14.532,-6.079 0.076,-0.313 0.15,-0.625 0.225,-0.937 1.705,0 3.53,-0.402 5.095,0.065 10.615,3.167 21.117,6.713 31.762,9.769 25.424,7.3 50.917,14.362 76.362,21.594 11.02,3.132 22.077,5.275 33.683,4.725 10.473,-0.497 20.894,0.523 30.747,4.763 2.765,1.192 5.658,1.433 8.667,0.391 6.401,-2.22 12.862,-4.27 19.311,-6.35 3.84,-1.237 7.235,-0.207 9.412,3.079 0.52,0.784 0.629,2.341 0.195,3.15 -0.954,1.777 -2.373,3.305 -3.605,4.932 -1.873,2.474 -3.749,4.945 -5.979,7.884 1.277,0 1.919,0.025 2.559,-0.005 3.576,-0.159 7.152,-0.467 10.728,-0.466 4.386,10e-4 5.526,1.911 3.624,5.679 -0.114,0.226 -0.177,0.475 -0.364,0.986 1.449,0.295 2.828,0.586 4.21,0.856 11.777,2.301 23.543,4.646 35.332,6.877 8.484,1.604 16.994,3.071 25.499,4.565 8.011,1.407 16.018,2.84 24.051,4.106 2.45,0.386 4.979,0.239 7.57,-1.994 -3.691,-0.665 -6.855,-1.089 -9.947,-1.819 -22.29,-5.257 -44.566,-10.57 -66.843,-15.886 -1.854,-0.444 -3.241,-1.418 -3.267,-3.833 0.84,0 1.615,-0.12 2.343,0.018 7.227,1.375 14.444,2.806 21.67,4.193 12.292,2.361 24.571,4.789 36.884,7.028 14.574,2.649 29.174,5.157 43.778,7.636 1.356,0.23 2.824,-0.197 4.241,-0.318 0.055,-0.331 0.109,-0.662 0.164,-0.992 -0.937,-0.626 -1.81,-1.396 -2.823,-1.855 -5.022,-2.273 -10.035,-4.576 -15.133,-6.668 -37.153,-15.254 -74.271,-30.594 -111.505,-45.646 -46.631,-18.851 -92.94,-38.538 -140.65,-54.617 -14.664,-4.942 -29.423,-9.635 -43.92,-15.031 -18.326,-6.822 -36.444,-14.177 -55.712,-18.08 -3.667,-0.744 -6.312,0.625 -8.471,3.322 -1.982,2.474 -1.946,4.815 0.031,7.978 0.627,1.002 1.379,1.956 2.218,2.787 8.566,8.494 18.121,15.744 28.213,22.309 17.392,11.312 36.326,19.497 55.502,27.136 24.945,9.938 49.984,19.639 74.959,29.505 1.178,0.465 2.116,1.538 3.167,2.329 -0.113,0.343 -0.226,0.686 -0.339,1.03 -1.235,0 -2.522,0.23 -3.696,-0.04 -5.268,-1.21 -10.579,-2.318 -15.739,-3.906 -14.866,-4.577 -29.689,-9.297 -44.489,-14.089 -25.655,-8.309 -51.051,-17.422 -75.048,-29.766 -18.332,-9.429 -35.983,-20.18 -53.977,-30.271 -4.356,-2.444 -8.831,-4.689 -13.353,-6.81 -0.847,-0.397 -2.276,0.03 -3.226,0.502 -0.316,0.157 -0.306,1.883 0.125,2.484 3.359,4.682 6.285,9.883 10.443,13.74 6.656,6.173 14.173,11.413 21.292,17.091 2.254,1.798 4.398,3.737 7.061,6.012 -3.543,0.454 -3.457,0.311 -7.581,-2.152 -10.742,-6.415 -20.959,-13.457 -28.566,-23.616 -5.585,-7.457 -10.556,-15.178 -10.802,-25.031 -0.285,-11.44 3.79,-20.561 13.995,-26.138 8.49,-4.64 17.926,-6.678 27.477,-7.176 13.408,-0.7 26.872,-0.766 40.202,1.354 8.841,1.407 17.723,2.737 26.421,4.801 14.11,3.349 27.652,8.452 41.008,14.14 38.226,16.279 76.614,32.167 114.15,50.03 34.016,16.188 68.163,32.102 102.32,47.993 16.42,7.639 32.791,15.262 47.002,26.799 8.913,7.237 17.401,14.804 24.13,24.216 1.145,1.601 3.153,2.884 5.034,3.591 3.548,1.334 7.311,2.089 10.951,3.197 1.281,0.391 2.464,1.111 3.69,1.681 -0.048,0.248 -0.096,0.495 -0.145,0.743 -3.696,1.09 -7.405,2.134 -11.08,3.281 -3.963,1.238 -4.654,2.236 -4.692,6.415 -0.043,4.622 -0.153,9.246 -0.072,13.867 0.038,2.136 -0.782,3.558 -2.897,4.751 -0.72,-1.144 -1.609,-2.179 -2.084,-3.379 -1.779,-4.484 -3.487,-9.001 -5.073,-13.556 -0.45,-1.291 -1.056,-1.718 -2.371,-1.729 -14.246,-0.117 -28.45,-0.758 -42.554,-3.021 -8.708,-1.399 -17.477,-2.409 -26.197,-3.738 -10.467,-1.596 -20.911,-3.342 -31.364,-5.028 -10.221,-1.648 -20.437,-3.335 -30.664,-4.938 -3.724,-0.584 -7.476,-0.978 -11.53,-1.498 0,1.604 0.001,2.527 0,3.45 -0.006,8.991 -0.011,17.983 -0.017,26.974 -0.003,4.551 -1.446,5.977 -5.911,5.939 -3.813,-0.032 -7.626,-0.006 -11.56,-0.006 l 0,4.194 c 0.004,14.901 -0.005,29.802 0.028,44.702 0.005,2.051 -0.648,3.686 -2.825,3.803 -2.381,0.129 -2.688,-1.539 -2.676,-3.607 0.092,-15.84 0.06,-31.683 0.14,-47.524 0.009,-1.668 -0.703,-2.031 -2.133,-2.086 -2.822,-0.107 -5.637,-0.337 -8.457,-0.502 -1.612,-0.094 -3.664,-0.782 -4.705,-0.048 -0.872,0.615 -0.6,2.899 -0.769,4.451 -0.168,1.538 -1.155,2.213 -2.456,1.844 -0.671,-0.19 -1.445,-1.227 -1.548,-1.968 -0.231,-1.657 -0.072,-3.368 -0.072,-4.95 m -1.031,163.52 0,-3.341 0,-123.058 c 0,-7.279 0.098,-14.56 -0.053,-21.836 -0.051,-2.463 1.033,-2.995 3.067,-2.711 2.108,0.294 4.198,0.711 6.307,0.989 3.315,0.438 3.835,0.992 3.839,4.384 0.045,33.653 0.108,67.306 0.126,100.959 0.007,13.871 -0.081,27.741 -0.125,41.612 -0.003,0.987 0,1.973 0,3.126 9.897,0 19.393,-0.052 28.887,0.043 1.955,0.019 2.728,-0.549 3.25,-2.51 4.684,-17.556 9.505,-35.075 14.304,-52.599 0.187,-0.686 0.568,-1.319 0.859,-1.976 0.233,0.073 0.465,0.148 0.698,0.222 l 0,56.556 64.279,0 c -1.578,-8.232 -3.045,-16.197 -4.651,-24.134 -0.866,-4.28 -0.973,-4.28 -5.369,-4.357 -4.535,-0.078 -9.07,-0.118 -13.606,-0.159 -2.19,-0.02 -4.378,-0.004 -6.581,-0.004 l 0,-118.379 c 1.426,-0.234 2.679,-0.464 3.939,-0.643 3.411,-0.485 5.357,0.677 6.13,4.054 1.412,6.178 2.714,12.384 3.928,18.604 2.999,15.366 5.934,30.744 8.872,46.121 2.033,10.636 3.984,21.289 6.052,31.919 2.438,12.54 4.775,25.105 7.532,37.577 1.271,5.748 0.743,10.622 -3.781,14.674 -4.503,4.032 -8.903,8.19 -13.541,12.061 -14.549,12.133 -30.382,22.356 -47.226,30.99 -20.755,10.639 -42.586,18.397 -65.433,22.986 -11.623,2.334 -23.419,4.009 -35.217,5.189 -7.972,0.798 -16.085,0.379 -24.129,0.203 -9.121,-0.2 -18.331,-0.047 -27.329,-1.296 -12.467,-1.73 -24.913,-4.063 -37.12,-7.13 -30.154,-7.578 -58.016,-20.444 -83.317,-38.541 -9.823,-7.027 -19.064,-14.87 -28.552,-22.363 -2.21,-1.745 -4.086,-3.975 -3.856,-6.848 0.412,-5.144 1.093,-10.292 2.066,-15.36 3.111,-16.2 6.5,-32.347 9.604,-48.548 3.057,-15.958 5.633,-32.011 8.898,-47.925 4.179,-20.368 8.83,-40.641 13.29,-60.952 0.7,-3.188 1.532,-3.646 5.702,-3.209 2.454,0.257 2.935,2.001 2.921,4.045 -0.026,3.509 -0.14,7.019 -0.119,10.527 0.149,24.647 0.354,49.294 0.466,73.942 0.028,6.065 -0.282,12.131 -0.327,18.198 -0.09,11.814 -0.105,23.63 -0.146,35.446 -0.013,3.845 -0.765,4.568 -4.668,4.584 -7.706,0.03 -15.411,0.103 -23.116,0.124 -2.397,0.006 -3.718,0.918 -4.134,3.485 -0.839,5.174 -2.006,10.294 -2.972,15.449 -0.599,3.199 -1.078,6.421 -1.622,9.699 l 91.693,0 c 0,-8.177 0.001,-16.136 -10e-4,-24.095 0,-4.036 -0.115,-4.148 -4.23,-4.149 -5.709,-0.002 -11.419,0 -17.211,0 l 0,-145.802 c 1.734,0 3.342,-0.097 4.935,0.018 6.883,0.496 13.759,1.096 20.642,1.574 3.202,0.222 4.378,1.354 4.398,4.631 0.168,26.359 0.406,52.716 0.471,79.076 0.036,14.885 -0.24,29.77 -0.327,44.656 -0.081,13.528 -0.101,27.057 -0.14,40.585 -0.012,4.101 -10e-4,4.122 4.016,4.101 20.882,-0.114 41.766,-0.449 62.645,-0.263 9.143,0.081 17.841,-7.443 17.824,-17.99 -0.04,-24.748 0.006,-49.496 -0.036,-74.245 -0.007,-4.079 -1.725,-7.564 -5.17,-9.7 -2.603,-1.613 -5.645,-2.521 -8.73,-3.844 0.133,-0.574 0.235,-1.403 0.514,-2.169 5.458,-15.041 10.895,-30.089 16.431,-45.101 1.936,-5.245 2.316,-5.206 7.933,-4.389 2.606,0.38 3.273,1.422 3.27,3.968 -0.075,49.925 -0.056,99.851 -0.056,149.776 l 0,3.473 33.103,0 z m -360.311,122.819 612,0 0,-612 -612,0 0,612 z"
                   style="fill:none;fill-opacity:1;fill-rule:evenodd;stroke:none"
                   id="path34"
                   inkscape:connector-curvature="0" /></g><g
                 transform="translate(360.8252,578.6675)"
                 id="g36"><path
                   d="m 0,0 -33.104,0 0,-3.473 c 0,-49.924 -0.018,-99.85 0.056,-149.776 0.004,-2.545 -0.663,-3.588 -3.269,-3.967 -5.618,-0.818 -5.997,-0.857 -7.933,4.388 -5.536,15.012 -10.974,30.06 -16.432,45.101 -0.278,0.767 -0.381,1.596 -0.513,2.169 3.085,1.324 6.126,2.231 8.729,3.845 3.445,2.135 5.163,5.62 5.17,9.699 0.043,24.749 -0.004,49.497 0.036,74.245 0.018,10.547 -8.68,18.072 -17.823,17.99 -20.879,-0.185 -41.763,0.15 -62.646,0.263 -4.017,0.021 -4.028,0 -4.016,-4.101 0.04,-13.528 0.06,-27.056 0.141,-40.585 0.087,-14.885 0.363,-29.771 0.326,-44.656 -0.064,-26.359 -0.302,-52.717 -0.47,-79.076 -0.021,-3.277 -1.196,-4.408 -4.398,-4.63 -6.884,-0.479 -13.76,-1.079 -20.643,-1.575 -1.592,-0.115 -3.201,-0.017 -4.935,-0.017 l 0,145.801 c 5.793,0 11.502,-0.001 17.211,0 4.116,0.001 4.23,0.114 4.231,4.149 0.002,7.959 0,15.918 0,24.096 l -91.693,0 c 0.545,-3.279 1.024,-6.501 1.623,-9.7 0.966,-5.154 2.132,-10.274 2.971,-15.448 0.416,-2.568 1.737,-3.479 4.135,-3.486 7.705,-0.021 15.41,-0.093 23.116,-0.124 3.902,-0.016 4.654,-0.739 4.668,-4.584 0.04,-11.816 0.055,-23.631 0.145,-35.446 0.046,-6.067 0.355,-12.133 0.328,-18.198 -0.113,-24.648 -0.318,-49.295 -0.466,-73.942 -0.022,-3.508 0.092,-7.018 0.118,-10.527 0.014,-2.044 -0.467,-3.788 -2.92,-4.045 -4.17,-0.436 -5.003,0.021 -5.702,3.209 -4.46,20.311 -9.112,40.584 -13.291,60.953 -3.264,15.913 -5.84,31.966 -8.897,47.924 -3.104,16.201 -6.494,32.348 -9.604,48.548 -0.973,5.069 -1.655,10.217 -2.066,15.36 -0.23,2.873 1.646,5.103 3.855,6.848 9.489,7.494 18.73,15.336 28.553,22.363 25.301,18.097 53.163,30.964 83.317,38.541 12.206,3.068 24.653,5.401 37.12,7.131 8.998,1.248 18.207,1.095 27.328,1.295 8.044,0.176 16.158,0.595 24.129,-0.203 C -21.717,75.179 -9.921,73.504 1.702,71.17 24.55,66.582 46.381,58.824 67.136,48.185 83.979,39.55 99.813,29.328 114.361,17.194 119,13.324 123.399,9.166 127.902,5.133 c 4.525,-4.051 5.052,-8.925 3.782,-14.674 -2.757,-12.471 -5.094,-25.037 -7.533,-37.577 -2.067,-10.63 -4.018,-21.282 -6.051,-31.919 -2.939,-15.377 -5.873,-30.755 -8.872,-46.121 -1.214,-6.219 -2.516,-12.425 -3.928,-18.603 -0.774,-3.378 -2.719,-4.539 -6.13,-4.054 -1.261,0.179 -2.514,0.408 -3.94,0.643 l 0,118.379 c 2.204,0 4.392,-0.017 6.582,0.003 4.536,0.041 9.071,0.081 13.606,0.16 4.395,0.077 4.503,0.076 5.368,4.356 1.607,7.937 3.073,15.902 4.652,24.134 l -64.28,0 0,-56.556 c -0.232,-0.074 -0.465,-0.148 -0.697,-0.222 -0.291,0.658 -0.672,1.291 -0.859,1.976 -4.799,17.525 -9.621,35.044 -14.304,52.6 -0.523,1.96 -1.295,2.529 -3.25,2.509 C 32.554,0.072 23.058,0.124 13.16,0.124 c 0,-1.153 -0.003,-2.139 0,-3.125 0.045,-13.872 0.133,-27.742 0.125,-41.613 -0.017,-33.653 -0.08,-67.305 -0.126,-100.958 -0.004,-3.392 -0.523,-3.947 -3.839,-4.385 -2.108,-0.278 -4.199,-0.694 -6.306,-0.989 -2.035,-0.284 -3.118,0.249 -3.068,2.712 0.152,7.276 0.054,14.557 0.054,21.836 L 0,-3.341 0,0 z"
                   style="fill:#000000;fill-opacity:1;fill-rule:evenodd;stroke:none"
                   id="path38"
                   inkscape:connector-curvature="0" /></g><g
                 transform="translate(344.7178,366.5635)"
                 id="g40"><path
                   d="M 0,0 0,-4.323 C 0,-8.767 0.128,-8.909 4.616,-9.453 4.989,-1.832 4.704,-1.222 0,0 m 4.711,0.783 c 0,2.098 -0.014,3.96 0.003,5.821 0.034,4.052 -0.334,4.484 -4.664,5.246 0,-1.885 10e-4,-3.749 0,-5.612 0,-4.181 0.049,-4.243 4.661,-5.455 m -5.176,37.062 c 0,-1.722 0.006,-3.394 -0.001,-5.065 -0.013,-3.989 0.825,-4.85 5.102,-5.187 0,1.615 0.032,3.228 -0.006,4.84 -0.093,3.924 -0.581,4.453 -5.095,5.412 m 0.17,-11.376 c 0,-2.694 0.024,-5.064 -0.005,-7.434 -0.058,-4.76 -0.071,-4.76 4.764,-6.119 0.072,0.133 0.209,0.269 0.209,0.403 0.005,2.309 -0.028,4.618 -0.013,6.926 0.03,4.603 0.041,4.603 -4.955,6.224 m 15.241,-35.28 c 5.11,1.932 9.959,3.766 15.351,5.804 -5.396,2.601 -10.306,2.087 -15.351,1.346 l 0,-7.15 z M 43.47,48.696 c -1.903,-3.733 -4.452,-4.67 -5.819,-2.488 -0.957,1.526 -2.049,1.597 -3.405,1.448 -4.23,-0.467 -8.454,-0.994 -12.651,-1.495 -0.916,-2.621 -2.625,-3.633 -3.623,-2.105 -1.401,2.143 -2.971,1.389 -4.649,1.15 C 10.796,44.845 8.253,44.55 5.759,44.028 4.608,43.787 3.557,43.076 2.46,42.577 2.458,42.259 2.455,41.941 2.452,41.624 c 1.176,-0.437 2.328,-1.171 3.53,-1.266 12.839,-1.011 25.551,-0.232 37.999,3.247 1.551,0.434 2.873,1.685 4.301,2.558 -1.606,0.845 -3.214,1.691 -4.812,2.533 M 17.138,48.584 c 0,1.583 -0.159,3.293 0.072,4.951 0.103,0.74 0.877,1.778 1.548,1.967 1.301,0.369 2.288,-0.306 2.456,-1.843 0.169,-1.553 -0.103,-3.837 0.769,-4.452 1.041,-0.734 3.093,-0.046 4.705,0.048 2.82,0.165 5.635,0.395 8.457,0.502 1.43,0.055 2.142,0.418 2.133,2.086 -0.08,15.842 -0.048,31.684 -0.14,47.525 -0.012,2.068 0.295,3.736 2.676,3.607 2.177,-0.118 2.83,-1.753 2.825,-3.804 -0.033,-14.9 -0.024,-29.8 -0.028,-44.701 l 0,-4.195 c 3.934,0 7.747,-0.025 11.56,0.007 4.465,0.037 5.908,-1.389 5.911,-5.94 0.006,-8.991 0.011,-17.983 0.017,-26.974 0.001,-0.923 0,-1.846 0,-3.45 4.054,0.52 7.806,0.914 11.53,1.498 10.227,1.604 20.443,3.29 30.664,4.938 10.453,1.686 20.897,3.432 31.364,5.028 8.72,1.329 17.489,2.34 26.197,3.738 14.104,2.264 28.308,2.904 42.554,3.022 1.315,0.01 1.921,0.437 2.371,1.728 1.586,4.556 3.294,9.072 5.073,13.557 0.475,1.199 1.364,2.235 2.084,3.379 2.115,-1.194 2.935,-2.616 2.897,-4.751 -0.081,-4.621 0.029,-9.245 0.072,-13.867 0.038,-4.179 0.729,-5.177 4.692,-6.416 3.675,-1.147 7.384,-2.191 11.08,-3.281 0.049,-0.248 0.097,-0.495 0.145,-0.743 -1.226,-0.569 -2.409,-1.29 -3.69,-1.681 -3.64,-1.108 -7.403,-1.863 -10.951,-3.197 -1.881,-0.707 -3.889,-1.99 -5.034,-3.591 -6.729,-9.412 -15.217,-16.979 -24.13,-24.216 -14.211,-11.537 -30.582,-19.16 -47.002,-26.798 -34.157,-15.892 -68.304,-31.806 -102.32,-47.994 -37.536,-17.863 -75.924,-33.75 -114.15,-50.03 -13.356,-5.687 -26.898,-10.791 -41.008,-14.139 -8.698,-2.065 -17.58,-3.395 -26.421,-4.801 -13.33,-2.12 -26.794,-2.055 -40.202,-1.355 -9.551,0.498 -18.987,2.536 -27.477,7.176 -10.205,5.577 -14.28,14.698 -13.995,26.139 0.246,9.852 5.217,17.573 10.802,25.03 7.607,10.159 17.824,17.201 28.566,23.616 4.124,2.463 4.038,2.607 7.581,2.153 -2.663,-2.276 -4.807,-4.214 -7.061,-6.013 -7.119,-5.678 -14.636,-10.918 -21.292,-17.091 -4.158,-3.856 -7.084,-9.058 -10.443,-13.74 -0.431,-0.601 -0.441,-2.326 -0.125,-2.484 0.95,-0.471 2.379,-0.899 3.226,-0.502 4.522,2.122 8.997,4.367 13.353,6.81 17.994,10.091 35.645,20.842 53.977,30.272 23.997,12.343 49.393,21.457 75.048,29.765 14.8,4.792 29.623,9.512 44.489,14.089 5.16,1.588 10.471,2.696 15.739,3.906 1.174,0.27 2.461,0.04 3.696,0.04 0.113,-0.343 0.226,-0.687 0.339,-1.03 -1.051,-0.791 -1.989,-1.863 -3.167,-2.329 -24.975,-9.865 -50.014,-19.566 -74.959,-29.505 -19.176,-7.639 -38.11,-15.824 -55.502,-27.136 -10.092,-6.565 -19.647,-13.815 -28.213,-22.308 -0.839,-0.831 -1.591,-1.785 -2.218,-2.787 -1.977,-3.163 -2.013,-5.504 -0.031,-7.979 2.159,-2.697 4.804,-4.065 8.471,-3.322 19.268,3.903 37.386,11.259 55.712,18.08 14.497,5.396 29.256,10.09 43.92,15.031 47.71,16.079 94.019,35.767 140.65,54.617 37.234,15.052 74.352,30.392 111.505,45.646 5.098,2.093 10.111,4.395 15.133,6.669 1.013,0.459 1.886,1.228 2.823,1.854 -0.055,0.33 -0.109,0.661 -0.164,0.992 -1.417,0.122 -2.885,0.548 -4.241,0.318 C 187.452,17.444 172.852,14.937 158.278,12.287 145.965,10.048 133.686,7.62 121.394,5.26 114.168,3.872 106.951,2.441 99.724,1.066 98.996,0.929 98.221,1.048 97.381,1.048 c 0.026,2.415 1.413,3.389 3.267,3.833 22.277,5.316 44.553,10.63 66.843,15.887 3.092,0.729 6.256,1.153 9.947,1.818 -2.591,2.233 -5.12,2.38 -7.57,1.994 -8.033,-1.266 -16.04,-2.699 -24.051,-4.105 C 137.312,18.98 128.802,17.514 120.318,15.909 108.529,13.679 96.763,11.333 84.986,9.032 83.604,8.763 82.225,8.472 80.776,8.177 80.963,7.665 81.026,7.416 81.14,7.19 83.042,3.422 81.902,1.513 77.516,1.512 73.94,1.511 70.364,1.818 66.788,1.978 c -0.64,0.029 -1.282,0.004 -2.559,0.004 2.23,-2.939 4.106,-5.41 5.979,-7.883 1.232,-1.627 2.651,-3.156 3.605,-4.933 0.434,-0.809 0.325,-2.366 -0.195,-3.149 -2.177,-3.287 -5.572,-4.317 -9.412,-3.079 -6.449,2.08 -12.91,4.129 -19.311,6.349 -3.009,1.042 -5.902,0.801 -8.667,-0.391 -9.853,-4.24 -20.274,-5.259 -30.747,-4.763 -11.606,0.551 -22.663,-1.593 -33.683,-4.725 -25.445,-7.231 -50.938,-14.294 -76.362,-21.594 -10.645,-3.056 -21.147,-6.602 -31.762,-9.769 -1.565,-0.467 -3.39,-0.065 -5.095,-0.065 -0.075,0.312 -0.149,0.624 -0.225,0.937 4.837,2.047 9.583,4.354 14.532,6.079 7.577,2.64 15.289,4.894 22.955,7.275 2.535,0.789 4.555,1.99 5.645,4.651 1.339,3.266 4.302,4.738 7.485,5.621 18.652,5.175 37.307,10.34 55.99,15.401 9.393,2.546 18.845,4.873 28.274,7.285 3.956,1.011 4.097,1.434 3.978,5.623 -0.104,3.659 0.337,7.331 0.373,10.998 0.042,4.344 -1.091,8.111 -4.913,10.887 -2.678,1.945 -4.985,4.419 -7.347,6.769 -0.568,0.566 -1.112,1.708 -0.909,2.343 0.197,0.621 1.323,1.216 2.112,1.33 3.114,0.448 6.268,0.621 9.376,1.095 0.66,0.101 1.529,0.953 1.712,1.62 0.379,1.375 0.432,2.856 0.491,4.299 0.139,3.343 1.864,5.307 5.191,5.89 4.501,0.79 8.994,1.624 13.839,2.501"
                   style="fill:#000000;fill-opacity:1;fill-rule:evenodd;stroke:none"
                   id="path42"
                   inkscape:connector-curvature="0" /></g><g
                 transform="translate(514.8486,219.085)"
                 id="g44"><path
                   d="m 0,0 c -1.837,-3.371 -3.605,-4.004 -7.219,-3.561 -6.408,0.787 -12.838,1.399 -19.266,2.002 -7.291,0.685 -14.584,1.382 -21.89,1.878 -5.706,0.388 -11.431,0.629 -17.149,0.668 -10.359,0.072 -20.725,0.174 -31.074,-0.167 -9.877,-0.325 -19.745,-1.076 -29.598,-1.864 -8.728,-0.697 -17.45,-1.547 -26.138,-2.614 -9.432,-1.158 -18.835,-2.57 -28.229,-4.006 -13.156,-2.012 -26.292,-4.137 -39.435,-6.235 -11.546,-1.844 -23.074,-3.818 -34.638,-5.547 -9.228,-1.379 -18.478,-2.669 -27.757,-3.646 -10.41,-1.096 -20.85,-1.974 -31.298,-2.617 -9.882,-0.607 -19.79,-0.812 -29.688,-1.143 -5.551,-0.184 -11.109,-0.457 -16.656,-0.343 -7.934,0.163 -15.862,0.633 -23.792,1.007 -0.658,0.031 -1.46,0.149 -1.924,0.544 -0.961,0.82 -1.739,1.853 -2.592,2.798 1.101,0.198 2.208,0.591 3.302,0.56 9.215,-0.26 18.433,-0.951 27.641,-0.83 13.666,0.179 27.331,0.795 40.984,1.458 8.764,0.426 17.526,1.084 26.254,1.982 9.117,0.937 18.196,2.245 27.282,3.467 8.738,1.175 17.477,2.36 26.191,3.699 10.221,1.571 20.413,3.328 30.623,4.973 10.032,1.615 20.064,3.227 30.108,4.77 8.049,1.238 16.095,2.529 24.179,3.502 7.598,0.915 15.239,1.503 22.869,2.138 24.726,2.058 49.511,2.359 74.296,1.973 8.586,-0.134 17.158,-1.228 25.733,-1.927 C -22.854,2.428 -16.83,1.904 -10.813,1.315 -7.291,0.97 -3.786,0.466 0,0"
                   style="fill:#000000;fill-opacity:1;fill-rule:evenodd;stroke:none"
                   id="path46"
                   inkscape:connector-curvature="0" /></g><g
                 transform="translate(44.0786,408.3706)"
                 id="g48"><path
                   d="m 0,0 c 9.61,-1.478 19.046,-3.013 28.508,-4.354 6.22,-0.882 12.479,-1.487 18.721,-2.211 7.092,-0.823 14.175,-1.732 21.28,-2.435 6.778,-0.671 13.568,-1.39 20.369,-1.619 15.288,-0.514 30.588,-1.072 45.878,-0.966 10.553,0.073 21.114,1.049 31.643,1.953 9.133,0.785 18.245,1.886 27.33,3.121 9.822,1.334 19.597,3.013 29.4,4.488 9.555,1.438 19.128,2.756 28.679,4.22 9.381,1.44 18.741,3.015 28.117,4.494 2.843,0.449 5.699,0.844 8.563,1.109 0.645,0.059 1.35,-0.532 2.028,-0.824 -0.06,-0.304 -0.12,-0.606 -0.181,-0.91 -7.466,-1.739 -14.894,-3.673 -22.408,-5.174 -11.112,-2.219 -22.258,-4.289 -33.439,-6.124 -9.864,-1.619 -19.796,-2.831 -29.699,-4.219 -7.223,-1.011 -14.433,-2.154 -21.678,-2.982 -6.426,-0.734 -12.903,-1.027 -19.341,-1.669 -16.695,-1.664 -33.441,-1.8 -50.186,-1.594 -10.842,0.134 -21.705,0.39 -32.509,1.222 C 68.62,-13.516 56.191,-12.07 43.8,-10.457 29.686,-8.619 15.626,-6.368 1.544,-4.279 -0.409,-3.99 -0.531,-3.632 0,0"
                   style="fill:#000000;fill-opacity:1;fill-rule:evenodd;stroke:none"
                   id="path50"
                   inkscape:connector-curvature="0" /></g><g
                 transform="translate(44.9556,359.9883)"
                 id="g52"><path
                   d="m 0,0 c -0.236,1.235 -0.455,2.374 -0.758,3.955 3.55,-0.48 6.803,-0.9 10.05,-1.367 6.633,-0.953 13.258,-1.961 19.894,-2.891 7.31,-1.023 14.618,-2.072 21.946,-2.944 5.828,-0.693 11.683,-1.181 17.533,-1.682 7.89,-0.675 15.783,-1.33 23.682,-1.89 4.683,-0.332 9.38,-0.67 14.069,-0.65 12.057,0.054 24.124,0.037 36.165,0.562 10.459,0.456 20.908,1.418 31.324,2.513 12.742,1.341 25.468,2.896 38.159,4.654 11.91,1.65 23.762,3.706 35.646,5.543 10.141,1.567 20.29,3.088 30.439,4.594 0.904,0.134 1.845,0.018 3.372,0.018 -3.505,-3.373 -7.37,-4.639 -11.4,-5.357 -12.758,-2.277 -25.517,-4.554 -38.314,-6.591 -8.123,-1.293 -16.313,-2.165 -24.476,-3.212 -7.92,-1.016 -15.832,-2.1 -23.766,-2.991 -6.004,-0.675 -12.044,-1.019 -18.053,-1.645 -14.961,-1.559 -29.963,-2.29 -44.996,-2.077 -12.38,0.176 -24.763,0.47 -37.128,1.05 -8.07,0.379 -16.125,1.231 -24.159,2.114 -7.502,0.824 -14.967,1.979 -22.45,2.968 -8.072,1.067 -16.154,2.055 -24.216,3.187 C 8.381,-1.552 4.232,-0.729 0,0"
                   style="fill:#000000;fill-opacity:1;fill-rule:evenodd;stroke:none"
                   id="path54"
                   inkscape:connector-curvature="0" /></g><g
                 transform="translate(328.3945,387.543)"
                 id="g56"><path
                   d="m 0,0 c -3.154,-1.811 -6.467,-3.35 -10.095,-4.001 -15.667,-2.811 -31.323,-5.697 -47.036,-8.233 -12.223,-1.973 -24.499,-3.685 -36.798,-5.107 -10.313,-1.192 -20.684,-1.965 -31.048,-2.61 -9.711,-0.606 -19.446,-0.902 -29.175,-1.146 -10.088,-0.253 -20.189,-0.588 -30.269,-0.317 -9.444,0.253 -18.878,1.141 -28.298,1.953 -8.294,0.717 -16.579,1.597 -24.841,2.623 -8.081,1.004 -16.131,2.264 -24.19,3.448 -7.045,1.036 -14.077,2.168 -21.129,3.153 -1.787,0.249 -2.334,1.176 -2.206,2.759 0.148,1.836 1.593,1.285 2.536,1.153 4.866,-0.683 9.71,-1.525 14.572,-2.237 5.625,-0.823 11.26,-1.581 16.894,-2.346 6.054,-0.823 12.104,-1.676 18.169,-2.416 5.232,-0.639 10.475,-1.203 15.724,-1.683 7.547,-0.69 15.1,-1.339 22.66,-1.876 3.325,-0.235 6.672,-0.206 10.009,-0.2 14.126,0.026 28.258,-0.143 42.377,0.212 10.823,0.272 21.652,0.954 32.433,1.943 11.08,1.017 22.137,2.407 33.145,4.031 17.272,2.546 34.495,5.422 51.737,8.168 7.449,1.186 14.893,2.404 22.346,3.577 0.727,0.115 1.488,0.015 2.234,0.015 C -0.166,0.575 -0.083,0.288 0,0"
                   style="fill:#000000;fill-opacity:1;fill-rule:evenodd;stroke:none"
                   id="path58"
                   inkscape:connector-curvature="0" /></g><g
                 transform="translate(75.6431,519.8477)"
                 id="g60"><path
                   d="m 0,0 c -0.63,-3.435 -1.227,-6.875 -1.895,-10.303 -2.509,-12.856 -5.073,-25.701 -7.555,-38.563 -2.387,-12.367 -4.71,-24.747 -7.038,-37.126 -1.109,-5.9 -2.284,-11.791 -3.178,-17.723 -0.322,-2.137 -1.364,-2.672 -3.067,-2.216 -2.263,0.606 -4.704,1.113 -6.613,2.359 -3.926,2.565 -3.669,6.874 -2.912,10.681 2.683,13.503 5.272,27.052 8.721,40.37 4.722,18.229 12.647,35.215 21.965,51.547 0.256,0.449 0.675,0.806 1.018,1.205 C -0.37,0.154 -0.185,0.077 0,0"
                   style="fill:#000000;fill-opacity:1;fill-rule:evenodd;stroke:none"
                   id="path62"
                   inkscape:connector-curvature="0" /></g><g
                 transform="translate(183.3462,379.417)"
                 id="g64"><path
                   d="m 0,0 c -4.865,0 -9.732,-0.096 -14.595,0.019 -12.04,0.285 -24.094,0.389 -36.112,1.093 -10.353,0.607 -20.679,1.813 -30.99,2.982 -12.567,1.425 -25.116,3.011 -37.653,4.679 -6.291,0.836 -12.53,2.049 -18.807,2.999 -1.514,0.229 -1.99,0.887 -1.951,2.358 0.045,1.708 1.103,1.73 2.267,1.571 5.29,-0.725 10.576,-1.487 15.862,-2.248 6.632,-0.954 13.259,-1.942 19.895,-2.875 7.224,-1.016 14.442,-2.084 21.685,-2.944 5.915,-0.702 11.854,-1.256 17.796,-1.658 10.716,-0.726 21.437,-1.406 32.167,-1.868 4.94,-0.212 9.905,0.096 14.856,0.237 5.037,0.143 10.074,0.316 15.105,0.572 9.542,0.485 19.105,0.76 28.612,1.639 11.248,1.039 22.452,2.569 33.662,3.99 8.915,1.131 17.823,2.338 26.711,3.659 9.468,1.407 18.91,2.993 28.364,4.495 5.598,0.889 11.193,1.798 16.802,2.607 0.596,0.086 1.281,-0.441 1.923,-0.683 -0.433,-0.426 -0.801,-0.965 -1.31,-1.26 C 129.245,16.445 123.551,15.85 117.965,14.893 110.123,13.549 102.279,12.212 94.426,10.935 86.48,9.642 78.527,8.392 70.567,7.187 63.695,6.147 56.819,5.12 49.925,4.235 44.614,3.555 39.281,3.017 33.944,2.572 25.032,1.831 16.111,1.179 7.188,0.571 4.802,0.408 2.396,0.547 0,0.547 0,0.364 0,0.182 0,0"
                   style="fill:#000000;fill-opacity:1;fill-rule:evenodd;stroke:none"
                   id="path66"
                   inkscape:connector-curvature="0" /></g><g
                 transform="translate(465.2822,175.7051)"
                 id="g68"><path
                   d="m 0,0 c -11.016,0.241 -22.034,0.785 -33.045,0.639 -11.517,-0.153 -23.05,-0.653 -34.529,-1.582 -12.192,-0.988 -24.345,-2.517 -36.483,-4.068 -13.381,-1.708 -26.74,-3.618 -40.082,-5.614 -10.218,-1.528 -20.388,-3.39 -30.596,-4.989 -10.547,-1.654 -21.104,-3.252 -31.677,-4.721 -10.512,-1.462 -21.035,-2.863 -31.581,-4.044 -8.123,-0.911 -16.294,-1.389 -24.434,-2.161 -3.474,-0.329 -6.949,-1.155 -10.291,0.492 -0.623,0.308 -1.056,0.998 -1.577,1.512 0.619,0.303 1.219,0.815 1.86,0.876 11.535,1.079 23.114,1.788 34.604,3.214 16.837,2.087 33.625,4.586 50.408,7.084 15.411,2.293 30.78,4.872 46.184,7.219 10.731,1.636 21.481,3.155 32.238,4.612 10.602,1.435 21.193,3.066 31.843,3.988 11.302,0.981 22.662,1.338 34.005,1.76 8.286,0.306 16.587,0.457 24.876,0.347 C -10.515,4.461 -2.758,3.932 5,3.566 5.671,3.535 6.371,3.423 6.985,3.172 7.347,3.023 7.708,2.558 7.796,2.173 7.85,1.935 7.446,1.392 7.154,1.306 4.81,0.621 2.441,0.014 0.081,-0.617 0.054,-0.412 0.027,-0.206 0,0"
                   style="fill:#000000;fill-opacity:1;fill-rule:evenodd;stroke:none"
                   id="path70"
                   inkscape:connector-curvature="0" /></g><g
                 transform="translate(122.4868,404.3955)"
                 id="g72"><path
                   d="m 0,0 c -6.627,0.488 -12.567,0.865 -18.494,1.383 -4.058,0.356 -8.093,0.965 -12.149,1.354 -3.303,0.318 -4.339,1.69 -3.756,4.888 1.547,8.484 3.009,16.983 4.503,25.477 0.19,1.08 0.297,2.182 0.574,3.24 0.53,2.022 1.775,3.219 3.994,3.212 5.134,-0.016 10.269,0.021 15.403,-0.02 1.865,-0.014 3.168,-0.676 3.54,-2.842 C -4.94,28.277 -3.338,19.889 -1.844,11.481 -1.197,7.842 -0.667,4.181 0,0"
                   style="fill:#000000;fill-opacity:1;fill-rule:evenodd;stroke:none"
                   id="path74"
                   inkscape:connector-curvature="0" /></g><g
                 transform="translate(262.1826,525.1675)"
                 id="g76"><path
                   d="m 0,0 c 0,7.621 -0.008,15.242 0.003,22.862 0.005,3.521 0.828,4.317 4.398,4.321 3.339,0.004 6.679,0.034 10.018,-0.009 3.538,-0.045 4.462,-0.914 4.498,-4.371 0.151,-14.97 0.277,-29.941 0.381,-44.911 0.021,-2.969 -1.413,-4.411 -4.322,-4.436 -3.939,-0.035 -7.88,0.056 -11.816,-0.035 -2.312,-0.052 -3.223,0.895 -3.203,3.204 0.068,7.791 0.026,15.583 0.026,23.375 L 0,0 z"
                   style="fill:#000000;fill-opacity:1;fill-rule:evenodd;stroke:none"
                   id="path78"
                   inkscape:connector-curvature="0" /></g><g
                 transform="translate(542.5381,513.9888)"
                 id="g80"><path
                   d="m 0,0 c 0.416,-0.479 0.971,-0.893 1.229,-1.446 8.644,-18.509 16.901,-37.188 21.669,-57.142 2.16,-9.035 3.606,-18.239 5.369,-27.368 0.336,-1.74 0.669,-3.481 0.956,-5.23 0.4,-2.447 -0.666,-3.828 -3.148,-3.794 -1.775,0.025 -3.568,0.271 -5.313,0.621 -3.311,0.662 -4.589,3.076 -5.142,6.157 -3.028,16.888 -6.058,33.777 -9.17,50.65 C 4.169,-25.187 1.763,-12.846 -0.588,-0.495 -0.392,-0.33 -0.196,-0.165 0,0"
                   style="fill:#000000;fill-opacity:1;fill-rule:evenodd;stroke:none"
                   id="path82"
                   inkscape:connector-curvature="0" /></g><g
                 transform="translate(285.7808,414.9224)"
                 id="g84"><path
                   d="m 0,0 c -4.38,-0.741 -8.455,-1.441 -12.535,-2.116 -2.675,-0.442 -5.375,-0.761 -8.032,-1.293 -2.978,-0.598 -3.573,-0.27 -3.53,2.721 0.123,8.636 0.39,17.269 0.463,25.905 0.086,10.276 0.005,20.554 0.078,30.829 0.006,0.892 0.621,1.779 0.953,2.667 0.972,-0.367 2.135,-0.518 2.865,-1.16 0.772,-0.681 1.305,-1.771 1.649,-2.782 C -12.255,37.576 -6.461,20.366 -0.682,3.152 -0.371,2.225 -0.26,1.23 0,0"
                   style="fill:#000000;fill-opacity:1;fill-rule:evenodd;stroke:none"
                   id="path86"
                   inkscape:connector-curvature="0" /></g><g
                 transform="translate(345.8057,255.625)"
                 id="g88"><path
                   d="m 0,0 c 6.999,1.456 13.958,3.159 21.007,4.299 7.126,1.151 14.326,1.916 21.52,2.534 7.225,0.621 14.479,1.094 21.726,1.208 17.192,0.272 34.394,0.608 51.581,0.295 10.369,-0.19 20.726,-1.466 31.072,-2.415 8.039,-0.737 16.067,-1.622 24.076,-2.631 6.73,-0.848 13.423,-1.978 20.136,-2.958 0.992,-0.145 2.006,-0.144 2.992,-0.209 -0.005,-2.88 -0.875,-3.982 -3.522,-3.731 -4.47,0.424 -8.904,1.212 -13.362,1.78 -6.232,0.792 -12.468,1.542 -18.707,2.273 -5.739,0.673 -11.479,1.338 -17.226,1.931 -4.322,0.445 -8.65,0.997 -12.986,1.112 C 111.726,3.932 95.138,4.549 78.557,4.445 67.23,4.374 55.901,3.338 44.591,2.503 35.346,1.82 26.119,0.866 16.897,-0.102 12.176,-0.598 7.491,-1.444 2.774,-1.998 1.866,-2.104 0.885,-1.58 -0.062,-1.348 -0.041,-0.898 -0.021,-0.449 0,0"
                   style="fill:#000000;fill-opacity:1;fill-rule:evenodd;stroke:none"
                   id="path90"
                   inkscape:connector-curvature="0" /></g><g
                 transform="translate(199.4639,329.7432)"
                 id="g92"><path
                   d="m 0,0 c -3.071,-3.407 -7.103,-4.105 -10.965,-4.204 -15.471,-0.395 -30.961,-0.85 -46.424,-0.45 -11.549,0.298 -23.078,1.735 -34.59,2.921 -9.876,1.015 -19.723,2.337 -29.569,3.629 -8.663,1.134 -17.327,2.297 -25.943,3.731 -1.713,0.285 -3.213,1.855 -4.811,2.834 0.058,0.347 0.117,0.694 0.175,1.041 0.813,0.154 1.66,0.541 2.434,0.428 11.485,-1.678 22.938,-3.595 34.446,-5.097 9.944,-1.297 19.933,-2.311 29.928,-3.136 10.79,-0.89 21.602,-1.647 32.42,-2.04 11.187,-0.405 22.394,-0.418 33.591,-0.376 5.624,0.023 11.245,0.558 16.869,0.834 C -1.63,0.155 -0.813,0.042 0,0"
                   style="fill:#000000;fill-opacity:1;fill-rule:evenodd;stroke:none"
                   id="path94"
                   inkscape:connector-curvature="0" /></g><g
                 transform="translate(443.3838,297.0596)"
                 id="g96"><path
                   d="M 0,0 C 2.641,1.612 5.681,2.496 8.7,2.412 19.145,2.12 29.59,1.624 40.019,0.958 c 7.631,-0.487 15.258,-1.21 22.854,-2.109 8.165,-0.968 16.297,-2.224 24.433,-3.427 8.455,-1.252 16.897,-2.593 25.356,-3.896 0.561,-2.674 -0.58,-4.092 -3.263,-3.699 -5.696,0.834 -11.363,1.861 -17.056,2.715 -5.703,0.855 -11.418,1.625 -17.135,2.38 -6.394,0.844 -12.785,1.711 -19.194,2.416 -6.093,0.67 -12.201,1.262 -18.316,1.677 -10.883,0.737 -21.777,1.316 -32.667,1.963 -1.646,0.097 -3.294,0.2 -4.94,0.3 C 0.062,-0.48 0.031,-0.24 0,0"
                   style="fill:#000000;fill-opacity:1;fill-rule:evenodd;stroke:none"
                   id="path98"
                   inkscape:connector-curvature="0" /></g><g
                 transform="translate(420.2471,431.2988)"
                 id="g100"><path
                   d="m 0,0 c -4.686,0 -9.192,-0.035 -13.697,0.05 -0.494,0.009 -1.232,0.61 -1.411,1.101 -0.371,1.011 -0.608,2.132 -0.611,3.209 -0.036,15.817 -0.027,31.634 -0.018,47.451 0,0.653 0.097,1.306 0.15,1.959 0.258,0.052 0.517,0.105 0.775,0.157 C -9.892,36.014 -4.972,18.101 0,0"
                   style="fill:#000000;fill-opacity:1;fill-rule:evenodd;stroke:none"
                   id="path102"
                   inkscape:connector-curvature="0" /></g><g
                 transform="translate(525.8389,424.8437)"
                 id="g104"><path
                   d="m 0,0 c -9.464,1.203 -18.267,2.322 -27.531,3.5 0.686,4.657 1.198,9.176 2.14,13.603 0.181,0.85 2.035,1.869 3.148,1.908 5.552,0.195 11.113,0.086 16.672,0.091 1.692,0.001 2.555,-0.627 2.819,-2.506 C -2.003,11.258 -1.007,5.955 0,0"
                   style="fill:#000000;fill-opacity:1;fill-rule:evenodd;stroke:none"
                   id="path106"
                   inkscape:connector-curvature="0" /></g><g
                 transform="translate(105.2573,519.3091)"
                 id="g108"><path
                   d="m 0,0 c 2.252,-16.7 4.505,-33.399 6.786,-50.313 l -14.836,0 c 2.363,16.876 4.711,33.637 7.059,50.398 C -0.661,0.057 -0.331,0.028 0,0"
                   style="fill:#000000;fill-opacity:1;fill-rule:evenodd;stroke:none"
                   id="path110"
                   inkscape:connector-curvature="0" /></g><g
                 transform="translate(512.3154,519.3823)"
                 id="g112"><path
                   d="m 0,0 c 2.252,-16.725 4.504,-33.449 6.786,-50.394 l -14.811,0 c 2.353,16.807 4.704,33.593 7.053,50.378 C -0.647,-0.011 -0.323,-0.006 0,0"
                   style="fill:#000000;fill-opacity:1;fill-rule:evenodd;stroke:none"
                   id="path114"
                   inkscape:connector-curvature="0" /></g><g
                 transform="translate(406.707,424.5679)"
                 id="g116"><path
                   d="m 0,0 c 38.616,2.381 76.976,-0.107 115.142,-6.286 0.002,-0.274 0.004,-0.548 0.004,-0.822 -2.656,0 -5.319,-0.125 -7.965,0.031 -3.397,0.2 -6.774,0.728 -10.169,0.931 -7.067,0.422 -14.14,0.738 -21.211,1.073 C 61.15,-4.378 46.5,-3.682 31.848,-3.019 23.493,-2.641 15.136,-2.345 6.781,-1.976 4.826,-1.889 2.875,-1.678 0.93,-1.457 0.541,-1.413 0.187,-1.058 -0.184,-0.847 -0.123,-0.564 -0.062,-0.282 0,0"
                   style="fill:#000000;fill-opacity:1;fill-rule:evenodd;stroke:none"
                   id="path118"
                   inkscape:connector-curvature="0" /></g><g
                 transform="translate(53.9761,314.1309)"
                 id="g120"><path
                   d="m 0,0 c 27.291,-3.217 54.213,-6.39 81.135,-9.562 0.074,-0.273 0.15,-0.545 0.224,-0.818 -2.065,-0.649 -4.138,-1.871 -6.192,-1.84 -6.201,0.098 -12.404,0.57 -18.587,1.113 -5.324,0.467 -10.627,1.193 -15.931,1.876 -6.553,0.843 -13.1,1.738 -19.644,2.653 C 15.308,-5.782 9.622,-4.913 3.926,-4.107 1.789,-3.805 0.269,-2.933 0,0"
                   style="fill:#000000;fill-opacity:1;fill-rule:evenodd;stroke:none"
                   id="path122"
                   inkscape:connector-curvature="0" /></g><g
                 transform="translate(501.3721,326.751)"
                 id="g124"><path
                   d="M 0,0 C 22.254,0.944 44.06,-2.475 65.898,-7.19 65.705,-7.966 65.596,-8.443 65.467,-8.915 65.336,-9.396 65.186,-9.872 64.95,-10.668 43.225,-7.479 21.546,-4.297 -0.133,-1.115 -0.089,-0.743 -0.044,-0.372 0,0"
                   style="fill:#000000;fill-opacity:1;fill-rule:evenodd;stroke:none"
                   id="path126"
                   inkscape:connector-curvature="0" /></g><g
                 transform="translate(407.292,410.0171)"
                 id="g128"><path
                   d="M 0,0 C 0.535,0.649 0.84,1.396 1.284,1.49 2.775,1.808 4.317,2.056 5.838,2.043 22.082,1.906 38.327,1.785 54.569,1.5 60.347,1.398 66.127,0.979 71.881,0.45 73.393,0.311 74.815,-0.783 76.521,-1.546 74.467,-3.252 11.951,-1.684 0,0"
                   style="fill:#000000;fill-opacity:1;fill-rule:evenodd;stroke:none"
                   id="path130"
                   inkscape:connector-curvature="0" /></g><g
                 transform="translate(100.3262,271.2734)"
                 id="g132"><path
                   d="m 0,0 c -9.486,1.255 -18.982,2.445 -28.449,3.834 -1.483,0.218 -2.891,1.249 -4.212,2.095 -0.484,0.309 -0.612,1.172 -0.903,1.782 0.691,0.154 1.401,0.498 2.072,0.433 C -21.521,7.176 -11.558,6.127 -1.586,5.161 1.295,4.882 4.212,4.929 7.078,4.557 7.949,4.444 8.704,3.434 9.512,2.834 8.683,2.135 7.915,0.948 7.011,0.833 4.739,0.543 2.405,0.736 0.096,0.736 0.064,0.491 0.032,0.245 0,0"
                   style="fill:#000000;fill-opacity:1;fill-rule:evenodd;stroke:none"
                   id="path134"
                   inkscape:connector-curvature="0" /></g><g
                 transform="translate(571.8506,339.292)"
                 id="g136"><path
                   d="m 0,0 c -14.04,2.262 -27.723,4.467 -41.406,6.672 -0.073,0.251 -0.145,0.501 -0.217,0.751 0.573,0.376 1.104,0.968 1.728,1.093 5.875,1.179 11.669,0.265 17.466,-0.751 C -15.837,6.609 -9.227,5.559 -2.627,4.448 -1.644,4.282 -0.673,4.039 0.597,3.771 0.388,2.448 0.2,1.262 0,0"
                   style="fill:#000000;fill-opacity:1;fill-rule:evenodd;stroke:none"
                   id="path138"
                   inkscape:connector-curvature="0" /></g><g
                 transform="translate(434.8701,397.6982)"
                 id="g140"><path
                   d="m 0,0 c -5.752,-3.522 -23.646,-4.116 -26.747,-0.975 0.718,0.347 1.349,0.7 2.017,0.951 C -24.432,0.089 -24.056,0 -23.714,0 -15.969,0 -8.223,0 0,0"
                   style="fill:#000000;fill-opacity:1;fill-rule:evenodd;stroke:none"
                   id="path142"
                   inkscape:connector-curvature="0" /></g><g
                 transform="translate(561.1758,364.4678)"
                 id="g144"><path
                   d="m 0,0 c 4.911,2.962 9.53,1.646 14.131,1.845 l 0,-4.059 C 9.543,-1.495 5.089,-0.798 0,0"
                   style="fill:#000000;fill-opacity:1;fill-rule:evenodd;stroke:none"
                   id="path146"
                   inkscape:connector-curvature="0" /></g><g
                 transform="translate(388.1875,415.2593)"
                 id="g148"><path
                   d="m 0,0 c 1.599,-0.841 3.206,-1.687 4.812,-2.533 -1.428,-0.873 -2.749,-2.124 -4.3,-2.557 -12.449,-3.479 -25.16,-4.259 -37.999,-3.247 -1.202,0.094 -2.355,0.828 -3.531,1.265 0.003,0.318 0.006,0.635 0.008,0.953 1.097,0.499 2.149,1.21 3.299,1.452 2.494,0.521 5.037,0.816 7.565,1.177 1.677,0.24 3.248,0.993 4.648,-1.15 0.998,-1.527 2.707,-0.516 3.623,2.105 4.197,0.501 8.421,1.029 12.651,1.495 1.356,0.149 2.449,0.078 3.406,-1.448 C -4.452,-4.669 -1.902,-3.732 0,0"
                   style="fill:none;fill-opacity:1;fill-rule:evenodd;stroke:none"
                   id="path150"
                   inkscape:connector-curvature="0" /></g><g
                 transform="translate(359.6641,357.7529)"
                 id="g152"><path
                   d="M 0,0 0,7.149 C 5.045,7.891 9.955,8.404 15.351,5.804 9.959,3.766 5.109,1.932 0,0"
                   style="fill:none;fill-opacity:1;fill-rule:evenodd;stroke:none"
                   id="path154"
                   inkscape:connector-curvature="0" /></g><g
                 transform="translate(344.4229,393.0322)"
                 id="g156"><path
                   d="m 0,0 c 4.996,-1.621 4.985,-1.621 4.955,-6.224 -0.016,-2.307 0.018,-4.617 0.013,-6.925 0,-0.135 -0.137,-0.271 -0.209,-0.404 -4.835,1.36 -4.822,1.36 -4.764,6.119 C 0.023,-5.063 0,-2.693 0,0"
                   style="fill:none;fill-opacity:1;fill-rule:evenodd;stroke:none"
                   id="path158"
                   inkscape:connector-curvature="0" /></g><g
                 transform="translate(344.2529,404.4082)"
                 id="g160"><path
                   d="m 0,0 c 4.514,-0.959 5.002,-1.488 5.095,-5.412 0.038,-1.611 0.006,-3.225 0.006,-4.84 -4.277,0.337 -5.116,1.198 -5.102,5.187 C 0.006,-3.394 0,-1.722 0,0"
                   style="fill:none;fill-opacity:1;fill-rule:evenodd;stroke:none"
                   id="path162"
                   inkscape:connector-curvature="0" /></g><g
                 transform="translate(349.4287,367.3467)"
                 id="g164"><path
                   d="m 0,0 c -4.612,1.212 -4.661,1.273 -4.661,5.455 10e-4,1.862 0,3.727 0,5.611 C -0.331,10.305 0.037,9.873 0.003,5.821 -0.014,3.96 0,2.098 0,0"
                   style="fill:none;fill-opacity:1;fill-rule:evenodd;stroke:none"
                   id="path166"
                   inkscape:connector-curvature="0" /></g><g
                 transform="translate(344.7178,366.5635)"
                 id="g168"><path
                   d="M 0,0 C 4.704,-1.222 4.989,-1.832 4.616,-9.453 0.128,-8.909 0,-8.767 0,-4.323 L 0,0 z"
                   style="fill:none;fill-opacity:1;fill-rule:evenodd;stroke:none"
                   id="path170"
                   inkscape:connector-curvature="0" /></g></g></g></g></g></g></g></svg>